<?xml version="1.0" encoding="UTF-8" standalone="no"?><svg width="280px" height="32px" viewBox="0 0 280 32" version="1.1" xmlns="http://www.w3.org/2000/svg" xmlns:xlink="http://www.w3.org/1999/xlink" xmlns:sketch="http://www.bohemiancoding.com/sketch/ns"><title>Branding</title><desc>Created with Sketch.</desc><defs></defs><g id="Pages" stroke="none" stroke-width="1" fill="none" fill-rule="evenodd" sketch:type="MSPage"><g id="MEOB-3003-K10656-st_a" sketch:type="MSArtboardGroup" transform="translate(-165.000000, -36.000000)"><g id="Navigation" sketch:type="MSLayerGroup" transform="translate(15.000000, 15.000000)"><g id="Branding" transform="translate(150.000000, 21.000000)" sketch:type="MSShapeGroup"><path d="M3.14059016,31.3150164 L3.14059016,14.6967869 C4.8104918,13.0700328 6.60983607,11.2706885 9.35108197,11.2706885 C11.3202623,11.2706885 12.8203279,12.3842623 12.8203279,15.3825574 L12.8203279,31.3150164 L15.903082,31.3150164 L15.903082,14.6967869 C17.5739016,13.0700328 19.3723279,11.2706885 22.1135738,11.2706885 C24.0836721,11.2706885 25.5828197,12.3842623 25.5828197,15.3825574 L25.5828197,31.3150164 L28.6664918,31.3150164 L28.6664918,15.3825574 C28.6664918,9.85691803 25.4974426,8.6157377 22.5422951,8.6157377 C19.9295738,8.6157377 17.445377,10.0285902 15.4752787,12.1281311 C14.6619016,10.0717377 12.6486557,8.6157377 9.77888525,8.6157377 C7.63803279,8.6157377 5.19606557,9.72931148 3.31134426,11.8270164 L3.14059016,11.9986885 L3.14059016,9.04354098 L0.0569180328,9.04354098 L0.0569180328,31.3150164 L3.14059016,31.3150164" id="Fill-1" fill="#FFFFFF"></path><path d="M54.1777049,20.1792787 C54.1777049,13.7548852 51.1362623,8.6157377 45.0552131,8.6157377 C38.9732459,8.6157377 35.9327213,13.7548852 35.9327213,20.1792787 C35.9327213,26.6036721 38.9732459,31.7437377 45.0552131,31.7437377 C51.1362623,31.7437377 54.1777049,26.6036721 54.1777049,20.1792787 L54.1777049,20.1792787 Z M51.0940328,20.1792787 C51.0940328,25.9188197 48.7374426,29.0887869 45.0552131,29.0887869 C41.3711475,29.0887869 39.0154754,25.9188197 39.0154754,20.1792787 C39.0154754,14.4397377 41.3711475,11.2706885 45.0552131,11.2706885 C48.7374426,11.2706885 51.0940328,14.4397377 51.0940328,20.1792787 L51.0940328,20.1792787 Z" id="Fill-2" fill="#FFFFFF"></path><path d="M76.2334426,9.04354098 L73.106623,9.04354098 L67.4542951,27.4601967 L67.367082,27.4601967 L61.7147541,9.04354098 L58.5879344,9.04354098 L65.4401311,31.3150164 L69.552,31.3150164 L76.2334426,9.04354098" id="Fill-3" fill="#FFFFFF"></path><path d="M83.9274754,18.1238033 C84.1845246,14.0119344 86.1977705,11.2706885 89.9240656,11.2706885 C93.2647869,11.2706885 95.2348852,14.0119344 95.2348852,18.1238033 L83.9274754,18.1238033 L83.9274754,18.1238033 Z M96.6055082,25.3193443 C95.3211803,27.6327869 93.1794098,29.0887869 90.4381639,29.0887869 C86.7540984,29.0887869 83.8420984,25.6617705 83.8420984,20.7787541 L98.3185574,20.7787541 L98.3185574,18.7232787 C98.3185574,11.6131148 94.4637377,8.6157377 89.8377705,8.6157377 C84.3552787,8.6157377 80.7584262,12.9846557 80.7584262,20.1792787 C80.7584262,28.3176393 85.4697705,31.7437377 90.4381639,31.7437377 C95.4919344,31.7437377 97.5474098,29.0887869 99.0034098,26.5623607 L96.6055082,25.3193443 L96.6055082,25.3193443 Z" id="Fill-4" fill="#FFFFFF"></path><g id="Elevator" transform="translate(121.180328, 0.000000)" fill="#FF7B00"><path d="M3.63357377,18.1238033 C3.88970492,14.0119344 5.90386885,11.2706885 9.6292459,11.2706885 C12.9699672,11.2706885 14.9400656,14.0119344 14.9400656,18.1238033 L3.63357377,18.1238033 L3.63357377,18.1238033 Z M16.3106885,25.3193443 C15.0263607,27.6327869 12.8845902,29.0887869 10.1433443,29.0887869 C6.46019672,29.0887869 3.54727869,25.6617705 3.54727869,20.7787541 L18.0237377,20.7787541 L18.0237377,18.7232787 C18.0237377,11.6131148 14.1698361,8.6157377 9.54386885,8.6157377 C4.06137705,8.6157377 0.463606557,12.9846557 0.463606557,20.1792787 C0.463606557,28.3176393 5.17495082,31.7437377 10.1433443,31.7437377 C15.1971148,31.7437377 17.2535082,29.0887869 18.7095082,26.5623607 L16.3106885,25.3193443 L16.3106885,25.3193443 Z" id="Fill-5"></path><path d="M26.7175082,31.3150164 L29.8011803,31.3150164 L29.8011803,0.391081967 L26.7175082,0.391081967 L26.7175082,31.3150164 Z" id="Fill-6"></path><path d="M41.2215082,18.1238033 C41.4785574,14.0119344 43.4908852,11.2706885 47.2171803,11.2706885 C50.5569836,11.2706885 52.528918,14.0119344 52.528918,18.1238033 L41.2215082,18.1238033 L41.2215082,18.1238033 Z M53.899541,25.3193443 C52.6142951,27.6327869 50.4725246,29.0887869 47.7321967,29.0887869 C44.0481311,29.0887869 41.1352131,25.6617705 41.1352131,20.7787541 L55.6116721,20.7787541 L55.6116721,18.7232787 C55.6116721,11.6131148 51.7568525,8.6157377 47.1318033,8.6157377 C41.6502295,8.6157377 38.050623,12.9846557 38.050623,20.1792787 C38.050623,28.3176393 42.7628852,31.7437377 47.7321967,31.7437377 C52.7859672,31.7437377 54.8405246,29.0887869 56.2965246,26.5623607 L53.899541,25.3193443 L53.899541,25.3193443 Z" id="Fill-7"></path><path d="M78.2237377,9.04354098 L75.0987541,9.04354098 L69.4455082,27.4601967 L69.3592131,27.4601967 L63.7059672,9.04354098 L60.5782295,9.04354098 L67.4313443,31.3150164 L71.5441311,31.3150164 L78.2237377,9.04354098" id="Fill-8"></path><path d="M96.4558689,25.4038033 C94.6546885,27.4601967 91.8289836,29.0887869 89.6027541,29.0887869 C87.8897049,29.0887869 85.9196066,27.7163279 85.9196066,25.6617705 C85.9196066,22.5780984 89.3888525,20.5217049 96.4558689,19.2796066 L96.4558689,25.4038033 L96.4558689,25.4038033 Z M86.1757377,14.7399344 C86.7761311,13.2407869 88.4469508,11.2706885 91.8721311,11.2706885 C94.528918,11.2706885 96.4558689,12.3842623 96.4558689,15.3394098 L96.4558689,16.5383607 C86.5613115,18.2945574 82.8350164,20.7365246 82.8350164,25.618623 C82.8350164,29.6873443 85.7470164,31.7437377 89.1740328,31.7437377 C92.5138361,31.7437377 94.9989508,29.9434754 96.5412459,28.2313443 L96.8845902,31.3150164 L100.051803,31.3150164 C99.7534426,30.1592131 99.539541,28.9593443 99.539541,26.517377 L99.539541,15.2971803 C99.539541,10.4141639 95.5984262,8.6157377 91.8289836,8.6157377 C87.6317377,8.6157377 84.8904918,10.7565902 83.4785574,13.327082 L86.1757377,14.7399344 L86.1757377,14.7399344 Z" id="Fill-9"></path><path d="M105.363541,9.04354098 L105.363541,11.6994098 L109.002623,11.6994098 L109.002623,28.0587541 C109.002623,30.8872131 110.415475,31.7437377 113.758033,31.7437377 C115.556459,31.7437377 116.797639,31.5720656 117.354885,31.4013115 L117.354885,28.8730492 C116.54059,29.0024918 115.640918,29.0887869 114.613639,29.0887869 C112.815213,29.0887869 112.087213,28.5737705 112.087213,27.5464918 L112.087213,11.6994098 L117.225443,11.6994098 L117.225443,9.04354098 L112.087213,9.04354098 L112.087213,1.72039344 L109.002623,1.72039344 L109.002623,9.04354098 L105.363541,9.04354098" id="Fill-10"></path><path d="M140.811541,20.1792787 C140.811541,13.7548852 137.770098,8.6157377 131.688131,8.6157377 C125.606164,8.6157377 122.565639,13.7548852 122.565639,20.1792787 C122.565639,26.6036721 125.606164,31.7437377 131.688131,31.7437377 C137.770098,31.7437377 140.811541,26.6036721 140.811541,20.1792787 L140.811541,20.1792787 Z M137.726951,20.1792787 C137.726951,25.9188197 135.371279,29.0887869 131.688131,29.0887869 C128.005902,29.0887869 125.65023,25.9188197 125.65023,20.1792787 C125.65023,14.4397377 128.005902,11.2706885 131.688131,11.2706885 C135.371279,11.2706885 137.726951,14.4397377 137.726951,20.1792787 L137.726951,20.1792787 Z" id="Fill-11"></path><path d="M147.533377,31.3150164 L150.617049,31.3150164 L150.617049,18.9803279 C152.073049,14.3975082 154.087213,11.8701639 157.942033,11.7847869 L157.942033,8.70111475 C154.257049,8.70111475 152.415475,10.4141639 150.703344,13.4546885 L150.617049,13.4546885 L150.617049,9.04354098 L147.533377,9.04354098 L147.533377,31.3150164" id="Fill-12"></path></g><path d="M108.42059,15.5597377 L114.157377,15.5597377 L114.157377,9.82386885 L108.42059,9.82386885 L108.42059,15.5597377 Z" id="Fill-38" fill="#FF7B00"></path><path d="M108.42059,30.8330492 L114.157377,30.8330492 L114.157377,25.0971803 L108.42059,25.0971803 L108.42059,30.8330492 Z" id="Fill-39" fill="#FFFFFF"></path></g></g></g></g></svg>